<?xml version="1.0" encoding="UTF-8"?>
<!DOCTYPE svg PUBLIC "-//W3C//DTD SVG 1.1//EN" "http://www.w3.org/Graphics/SVG/1.1/DTD/svg11.dtd">
<!-- Creator: CorelDRAW -->
<svg xmlns="http://www.w3.org/2000/svg" xml:space="preserve" width="48.3317mm" height="40.1869mm" version="1.1" style="shape-rendering:geometricPrecision; text-rendering:geometricPrecision; image-rendering:optimizeQuality; fill-rule:evenodd; clip-rule:evenodd"
viewBox="0 0 546.23 454.18"
 xmlns:xlink="http://www.w3.org/1999/xlink"
 xmlns:xodm="http://www.corel.com/coreldraw/odm/2003">
 <defs>
  <style type="text/css">
   <![CDATA[
    .fil0 {fill:#FEFEFE;fill-rule:nonzero}
   ]]>
  </style>
 </defs>
 <g id="Camada_x0020_1">
  <metadata id="CorelCorpID_0Corel-Layer"/>
  <path class="fil0" d="M492 54.23l0 209.64c0,73.84 -60.4,135.98 -134.26,136.08 -11.33,0.03 -22.32,-1.38 -32.85,-4.01 32.49,-33.9 52.48,-79.88 52.48,-130.42l0 -219.75c-29.95,0 -54.23,24.26 -54.23,54.23l0 165.52c0,42.17 -19.53,79.88 -50.02,104.55 -30.49,-24.67 -50.02,-62.38 -50.02,-104.55l0 -189.25c-29.94,0 -54.23,24.28 -54.23,54.23l0 135.02c0,50.55 19.99,96.52 52.48,130.42 -10.53,2.63 -21.53,4.04 -32.85,4.01 -73.86,-0.11 -134.26,-62.24 -134.26,-136.08l0 -152.02c-29.95,0 -54.23,24.28 -54.23,54.24l0 97.61c0,103.8 84.93,190.51 188.74,190.48 30.3,0 58.96,-7.2 84.37,-19.97 25.41,12.77 54.06,19.97 84.37,19.97 103.82,0.03 188.74,-86.68 188.74,-190.48l0 -263.7c-29.96,0 -54.23,24.28 -54.23,54.23z"/>
 </g>
</svg>
